<?xml version="1.0" encoding="UTF-8" standalone="no"?>
<!-- Created with Inkscape (http://www.inkscape.org/) -->

<svg
   xmlns:dc="http://purl.org/dc/elements/1.1/"
   xmlns:cc="http://creativecommons.org/ns#"
   xmlns:rdf="http://www.w3.org/1999/02/22-rdf-syntax-ns#"
   xmlns:svg="http://www.w3.org/2000/svg"
   xmlns="http://www.w3.org/2000/svg"
   xmlns:xlink="http://www.w3.org/1999/xlink"
   xmlns:sodipodi="http://sodipodi.sourceforge.net/DTD/sodipodi-0.dtd"
   xmlns:inkscape="http://www.inkscape.org/namespaces/inkscape"
   sodipodi:docname="morseIneq_interiorCP.svg"
   inkscape:version="0.92.5 (2060ec1f9f, 2020-04-08)"
   id="svg8"
   version="1.1"
   viewBox="0 0 210 297"
   height="297mm"
   width="210mm">
  <defs
     id="defs2">
    <marker
       inkscape:isstock="true"
       style="overflow:visible;"
       id="marker5208"
       refX="0.0"
       refY="0.0"
       orient="auto"
       inkscape:stockid="Arrow1Lend">
      <path
         transform="scale(0.8) rotate(180) translate(12.5,0)"
         style="fill-rule:evenodd;stroke:#000000;stroke-width:1pt;stroke-opacity:1;fill:#000000;fill-opacity:1"
         d="M 0.0,0.0 L 5.0,-5.0 L -12.5,0.0 L 5.0,5.0 L 0.0,0.0 z "
         id="path5206" />
    </marker>
    <marker
       inkscape:stockid="Arrow1Lend"
       orient="auto"
       refY="0.0"
       refX="0.0"
       id="marker5138"
       style="overflow:visible;"
       inkscape:isstock="true"
       inkscape:collect="always">
      <path
         id="path4878"
         d="M 0.0,0.0 L 5.0,-5.0 L -12.5,0.0 L 5.0,5.0 L 0.0,0.0 z "
         style="fill-rule:evenodd;stroke:#000000;stroke-width:1pt;stroke-opacity:1;fill:#000000;fill-opacity:1"
         transform="scale(0.8) rotate(180) translate(12.5,0)" />
    </marker>
    <linearGradient
       inkscape:collect="always"
       id="linearGradient3723">
      <stop
         style="stop-color:#000000;stop-opacity:0.18085106"
         offset="0"
         id="stop3719" />
      <stop
         style="stop-color:#000000;stop-opacity:0;"
         offset="1"
         id="stop3721" />
    </linearGradient>
    <linearGradient
       inkscape:collect="always"
       id="linearGradient3713">
      <stop
         style="stop-color:#000000;stop-opacity:0.18617021"
         offset="0"
         id="stop3709" />
      <stop
         style="stop-color:#000000;stop-opacity:0;"
         offset="1"
         id="stop3711" />
    </linearGradient>
    <linearGradient
       inkscape:collect="always"
       id="linearGradient3703">
      <stop
         style="stop-color:#000000;stop-opacity:0.25531915"
         offset="0"
         id="stop3699" />
      <stop
         style="stop-color:#000000;stop-opacity:0.28191489"
         offset="1"
         id="stop3701" />
    </linearGradient>
    <linearGradient
       inkscape:collect="always"
       id="linearGradient3693">
      <stop
         style="stop-color:#000000;stop-opacity:0.13829787"
         offset="0"
         id="stop3689" />
      <stop
         style="stop-color:#000000;stop-opacity:0;"
         offset="1"
         id="stop3691" />
    </linearGradient>
    <linearGradient
       inkscape:collect="always"
       id="linearGradient3677">
      <stop
         style="stop-color:#000000;stop-opacity:0.13829787"
         offset="0"
         id="stop3673" />
      <stop
         style="stop-color:#000000;stop-opacity:0;"
         offset="1"
         id="stop3675" />
    </linearGradient>
    <linearGradient
       inkscape:collect="always"
       id="linearGradient3083">
      <stop
         style="stop-color:#000000;stop-opacity:0.35638297"
         offset="0"
         id="stop3079" />
      <stop
         style="stop-color:#000000;stop-opacity:0;"
         offset="1"
         id="stop3081" />
    </linearGradient>
    <linearGradient
       inkscape:collect="always"
       id="linearGradient1560">
      <stop
         style="stop-color:#000000;stop-opacity:0.16489361"
         offset="0"
         id="stop1556" />
      <stop
         style="stop-color:#000000;stop-opacity:0;"
         offset="1"
         id="stop1558" />
    </linearGradient>
    <marker
       inkscape:isstock="true"
       style="overflow:visible;"
       id="marker1036"
       refX="0.0"
       refY="0.0"
       orient="auto"
       inkscape:stockid="Arrow1Lend">
      <path
         transform="scale(0.8) rotate(180) translate(12.5,0)"
         style="fill-rule:evenodd;stroke:#bdbdbd;stroke-width:1pt;stroke-opacity:1;fill:#bdbdbd;fill-opacity:1"
         d="M 0.0,0.0 L 5.0,-5.0 L -12.5,0.0 L 5.0,5.0 L 0.0,0.0 z "
         id="path1034" />
    </marker>
    <marker
       inkscape:stockid="Arrow1Lend"
       orient="auto"
       refY="0.0"
       refX="0.0"
       id="Arrow1Lend"
       style="overflow:visible;"
       inkscape:isstock="true"
       inkscape:collect="always">
      <path
         id="path46806"
         d="M 0.0,0.0 L 5.0,-5.0 L -12.5,0.0 L 5.0,5.0 L 0.0,0.0 z "
         style="fill-rule:evenodd;stroke:#bdbdbd;stroke-width:1pt;stroke-opacity:1;fill:#bdbdbd;fill-opacity:1"
         transform="scale(0.8) rotate(180) translate(12.5,0)" />
    </marker>
    <marker
       inkscape:stockid="Tail"
       orient="auto"
       refY="0.0"
       refX="0.0"
       id="Tail"
       style="overflow:visible"
       inkscape:isstock="true">
      <g
         id="g46851"
         transform="scale(-1.2)"
         style="stroke:#000000;stroke-opacity:1;fill:#000000;fill-opacity:1">
        <path
           id="path46839"
           d="M -3.8048674,-3.9585227 L 0.54352094,0"
           style="fill:#000000;fill-rule:evenodd;stroke:#000000;stroke-width:0.8;stroke-linecap:round;stroke-opacity:1;fill-opacity:1" />
        <path
           id="path46841"
           d="M -1.2866832,-3.9585227 L 3.0617053,0"
           style="fill:#000000;fill-rule:evenodd;stroke:#000000;stroke-width:0.8;stroke-linecap:round;stroke-opacity:1;fill-opacity:1" />
        <path
           id="path46843"
           d="M 1.3053582,-3.9585227 L 5.6537466,0"
           style="fill:#000000;fill-rule:evenodd;stroke:#000000;stroke-width:0.8;stroke-linecap:round;stroke-opacity:1;fill-opacity:1" />
        <path
           id="path46845"
           d="M -3.8048674,4.1775838 L 0.54352094,0.21974226"
           style="fill:#000000;fill-rule:evenodd;stroke:#000000;stroke-width:0.8;stroke-linecap:round;stroke-opacity:1;fill-opacity:1" />
        <path
           id="path46847"
           d="M -1.2866832,4.1775838 L 3.0617053,0.21974226"
           style="fill:#000000;fill-rule:evenodd;stroke:#000000;stroke-width:0.8;stroke-linecap:round;stroke-opacity:1;fill-opacity:1" />
        <path
           id="path46849"
           d="M 1.3053582,4.1775838 L 5.6537466,0.21974226"
           style="fill:#000000;fill-rule:evenodd;stroke:#000000;stroke-width:0.8;stroke-linecap:round;stroke-opacity:1;fill-opacity:1" />
      </g>
    </marker>
    <radialGradient
       inkscape:collect="always"
       xlink:href="#linearGradient1560"
       id="radialGradient1562"
       cx="334.49762"
       cy="291.25638"
       fx="334.49762"
       fy="291.25638"
       r="34.47165"
       gradientTransform="matrix(-0.52906215,-0.01353012,0.01349835,-0.52781972,256.3961,233.39085)"
       gradientUnits="userSpaceOnUse" />
    <radialGradient
       inkscape:collect="always"
       xlink:href="#linearGradient3083"
       id="radialGradient3085"
       cx="359.58609"
       cy="317.41028"
       fx="359.58609"
       fy="317.41028"
       r="61.322832"
       gradientTransform="matrix(-2.4317742,-0.30363541,0.14500501,-1.1613252,1187.9922,807.9951)"
       gradientUnits="userSpaceOnUse" />
    <radialGradient
       inkscape:collect="always"
       xlink:href="#linearGradient3677"
       id="radialGradient3683"
       cx="428.42618"
       cy="283.72607"
       fx="428.42618"
       fy="283.72607"
       r="30.409592"
       gradientTransform="matrix(0.23587308,0,0,0.3990911,-5.1502238,-29.462015)"
       gradientUnits="userSpaceOnUse" />
    <radialGradient
       inkscape:collect="always"
       xlink:href="#linearGradient3693"
       id="radialGradient3695"
       cx="357.85062"
       cy="283.95898"
       fx="357.85062"
       fy="283.95898"
       r="103.57123"
       gradientTransform="matrix(0.15570394,0,0,0.06047996,29.196337,73.667422)"
       gradientUnits="userSpaceOnUse" />
    <radialGradient
       inkscape:collect="always"
       xlink:href="#linearGradient3703"
       id="radialGradient3705"
       cx="357.02817"
       cy="286.85112"
       fx="357.02817"
       fy="286.85112"
       r="79.282654"
       gradientTransform="matrix(0.15570394,0,0,0.07450002,29.196337,62.978639)"
       gradientUnits="userSpaceOnUse" />
    <radialGradient
       inkscape:collect="always"
       xlink:href="#linearGradient3713"
       id="radialGradient3715"
       cx="358.52063"
       cy="300.45169"
       fx="358.52063"
       fy="300.45169"
       r="105.57287"
       gradientTransform="matrix(0.15570394,0,0,0.0641456,29.196337,59.027343)"
       gradientUnits="userSpaceOnUse" />
    <radialGradient
       inkscape:collect="always"
       xlink:href="#linearGradient3723"
       id="radialGradient3725"
       cx="286.63971"
       cy="283.86713"
       fx="286.63971"
       fy="283.86713"
       r="27.987027"
       gradientTransform="matrix(0.26529232,-0.00671784,0.00713964,0.40287593,-4.2427552,-28.645607)"
       gradientUnits="userSpaceOnUse" />
  </defs>
  <sodipodi:namedview
     id="base"
     pagecolor="#ffffff"
     bordercolor="#666666"
     borderopacity="1.0"
     inkscape:pageopacity="0.0"
     inkscape:pageshadow="2"
     inkscape:zoom="1.979899"
     inkscape:cx="245.52068"
     inkscape:cy="811.70217"
     inkscape:document-units="mm"
     inkscape:current-layer="layer1"
     showgrid="false"
     inkscape:snap-smooth-nodes="true"
     inkscape:object-paths="true"
     inkscape:snap-global="false"
     inkscape:window-width="1366"
     inkscape:window-height="699"
     inkscape:window-x="0"
     inkscape:window-y="0"
     inkscape:window-maximized="1">
    <inkscape:grid
       type="xygrid"
       id="grid986" />
  </sodipodi:namedview>
  <metadata
     id="metadata5">
    <rdf:RDF>
      <cc:Work
         rdf:about="">
        <dc:format>image/svg+xml</dc:format>
        <dc:type
           rdf:resource="http://purl.org/dc/dcmitype/StillImage" />
        <dc:title />
      </cc:Work>
    </rdf:RDF>
  </metadata>
  <g
     inkscape:groupmode="layer"
     id="layer2"
     inkscape:label="Layer 2"
     style="display:inline">
    <g
       id="g3665"
       transform="matrix(0.83817994,0,0,0.850808,5.7376786,20.061708)"
       style="stroke-width:1.18417406">
      <path
         sodipodi:nodetypes="cc"
         inkscape:connector-curvature="0"
         id="path988"
         d="M 95.25,106.5 V 43"
         style="fill:none;stroke:#bdbdbd;stroke-width:0.31331274px;stroke-linecap:butt;stroke-linejoin:miter;stroke-opacity:1;marker-end:url(#Arrow1Lend)" />
      <path
         sodipodi:nodetypes="cc"
         inkscape:connector-curvature="0"
         id="path988-3"
         d="M 60.854167,74.75 H 129.64583"
         style="fill:none;stroke:#bdbdbd;stroke-width:0.31331274px;stroke-linecap:butt;stroke-linejoin:miter;stroke-opacity:1;marker-end:url(#marker1036)" />
    </g>
  </g>
  <g
     inkscape:label="Layer 1"
     inkscape:groupmode="layer"
     id="layer1"
     style="display:inline">
    <path
       style="fill:none;stroke:#000000;stroke-width:0.39999998;stroke-linecap:butt;stroke-linejoin:miter;stroke-miterlimit:4;stroke-dasharray:none;stroke-opacity:1"
       d="m 72.014919,102.15515 c 8.563716,-9.306137 17.905954,-9.306137 25.691152,0"
       id="path3611"
       inkscape:connector-curvature="0"
       sodipodi:nodetypes="cc" />
    <path
       style="fill:none;stroke:#000000;stroke-width:0.39999998;stroke-linecap:butt;stroke-linejoin:miter;stroke-miterlimit:4;stroke-dasharray:none;stroke-opacity:1"
       d="m 101.59867,96.571469 c -7.785202,-8.375526 -7.785202,-18.612278 0,-25.126577"
       id="path3613"
       inkscape:connector-curvature="0"
       sodipodi:nodetypes="cc" />
    <path
       style="fill:none;stroke:#000000;stroke-width:0.39999998;stroke-linecap:butt;stroke-linejoin:miter;stroke-miterlimit:4;stroke-dasharray:none;stroke-opacity:1"
       d="m 67.3438,96.571469 c 8.823222,-8.375526 8.823222,-18.612281 0,-25.126579"
       id="path3613-1"
       inkscape:connector-curvature="0"
       sodipodi:nodetypes="cc" />
    <path
       style="fill:none;stroke:#000000;stroke-width:0.39999998;stroke-linecap:butt;stroke-linejoin:miter;stroke-miterlimit:4;stroke-dasharray:none;stroke-opacity:1"
       d="m 72.014917,65.861208 c 8.563717,10.546965 17.905956,10.546965 25.691154,0"
       id="path3611-9"
       inkscape:connector-curvature="0"
       sodipodi:nodetypes="cc" />
    <path
       style="fill:none;stroke:#000000;stroke-width:0.39999998;stroke-linecap:butt;stroke-linejoin:miter;stroke-miterlimit:4;stroke-dasharray:none;stroke-opacity:1"
       d="M 97.460626,90.561165 C 89.312847,86.647647 80.814718,87.113162 72.085874,90.462326"
       id="path3645"
       inkscape:connector-curvature="0"
       sodipodi:nodetypes="cc" />
    <path
       style="fill:none;stroke:#000000;stroke-width:0.39999998;stroke-linecap:butt;stroke-linejoin:miter;stroke-miterlimit:4;stroke-dasharray:none;stroke-opacity:1"
       d="m 72.885791,78.12336 c 7.988803,3.055456 15.926124,3.758786 23.79996,0.06057"
       id="path3647"
       inkscape:connector-curvature="0"
       sodipodi:nodetypes="cc" />
    <path
       style="opacity:1;fill:url(#radialGradient3683);fill-opacity:1;stroke:none;stroke-width:0.26499999;stroke-miterlimit:4;stroke-dasharray:none;stroke-dashoffset:0;stroke-opacity:1"
       d="m 100.4039,94.984323 c -2.295412,-2.831028 -3.737139,-5.88525 -4.326612,-9.165695 -0.225618,-1.255565 -0.242163,-3.661161 -0.03314,-4.817727 0.612914,-3.391367 2.238092,-6.341818 4.802132,-8.718096 l 0.70602,-0.654317 0.25666,0.36192 c 1.17897,1.662452 2.25033,3.978081 2.84228,6.143303 1.44708,5.293108 0.67343,11.151415 -2.08096,15.757827 -0.55717,0.931784 -1.28939,2.009346 -1.36539,2.009346 -0.0318,0 -0.39226,-0.412451 -0.80099,-0.916561 z"
       id="path3671"
       inkscape:connector-curvature="0" />
    <path
       style="opacity:1;fill:none;fill-opacity:0.35638296;stroke:none;stroke-width:0.26499999;stroke-miterlimit:4;stroke-dasharray:none;stroke-dashoffset:0;stroke-opacity:1"
       d="M 95.736294,99.878976 C 94.168097,98.357255 91.81109,96.767315 90.064857,96.053257 87.2712,94.910892 84.202312,94.759303 81.36856,95.623697 c -2.372027,0.723555 -4.776018,2.133565 -7.080849,4.153131 l -0.529712,0.464142 -0.807207,-0.63093 c -1.254575,-0.980595 -2.058358,-1.764178 -3.153141,-3.073836 l -1.009012,-1.207058 0.945673,-1.16947 c 0.789161,-0.975915 2.288366,-3.190437 2.382873,-3.519811 0.03362,-0.117137 2.63922,-1.008715 4.233765,-1.448688 1.524821,-0.420737 3.591756,-0.838367 5.229718,-1.056684 1.713761,-0.228418 5.724941,-0.231199 7.313739,-0.0051 1.518234,0.216085 3.162753,0.578836 4.561259,1.006128 1.313475,0.401312 3.916714,1.445745 3.956169,1.587234 0.06126,0.219703 1.148914,2.096567 1.616879,2.790117 0.282499,0.418673 0.850951,1.185292 1.263226,1.703599 l 0.7496,0.942368 -0.72588,0.836799 c -1.055579,1.216859 -2.250131,2.289136 -3.674977,3.298762 l -0.275249,0.19505 z"
       id="path3685"
       inkscape:connector-curvature="0" />
    <path
       style="opacity:1;fill:url(#radialGradient3695);fill-opacity:1;stroke:none;stroke-width:0.26499999;stroke-miterlimit:4;stroke-dasharray:none;stroke-dashoffset:0;stroke-opacity:1"
       d="M 95.736294,99.878976 C 94.168097,98.357255 91.81109,96.767315 90.064857,96.053257 87.2712,94.910892 84.202312,94.759303 81.36856,95.623697 c -2.372027,0.723555 -4.776018,2.133565 -7.080849,4.153131 l -0.529712,0.464142 -0.807207,-0.63093 c -1.254575,-0.980595 -2.058358,-1.764178 -3.153141,-3.073836 l -1.009012,-1.207058 0.945673,-1.16947 c 0.789161,-0.975915 2.288366,-3.190437 2.382873,-3.519811 0.03362,-0.117137 2.63922,-1.008715 4.233765,-1.448688 1.524821,-0.420737 3.591756,-0.838367 5.229718,-1.056684 1.713761,-0.228418 5.724941,-0.231199 7.313739,-0.0051 1.518234,0.216085 3.162753,0.578836 4.561259,1.006128 1.313475,0.401312 3.916714,1.445745 3.956169,1.587234 0.06126,0.219703 1.148914,2.096567 1.616879,2.790117 0.282499,0.418673 0.850951,1.185292 1.263226,1.703599 l 0.7496,0.942368 -0.72588,0.836799 c -1.055579,1.216859 -2.250131,2.289136 -3.674977,3.298762 l -0.275249,0.19505 z"
       id="path3687"
       inkscape:connector-curvature="0" />
    <path
       style="opacity:1;fill:url(#radialGradient3705);fill-opacity:1;stroke:none;stroke-width:0.26499999;stroke-miterlimit:4;stroke-dasharray:none;stroke-dashoffset:0;stroke-opacity:1"
       d="m 96.326111,89.921114 c -3.743873,-1.651575 -8.382866,-2.461582 -12.627198,-2.204809 -1.542787,0.09333 -3.530889,0.338882 -4.634801,0.572434 -2.040085,0.431617 -3.622629,0.866788 -5.494831,1.510979 -0.599974,0.206441 -1.106433,0.356728 -1.125468,0.333976 -0.01904,-0.02277 0.157502,-0.500588 0.392307,-1.061851 1.348671,-3.223799 1.579874,-6.343902 0.695199,-9.381858 -0.16645,-0.571581 -0.327647,-1.107846 -0.358214,-1.191695 -0.04401,-0.120714 0.219669,-0.05715 1.266225,0.305243 5.944991,2.058564 11.605127,2.529564 16.735706,1.392635 1.563533,-0.346474 4.077273,-1.188446 5.168599,-1.73121 0.118643,-0.059 0.11087,0.01682 -0.06249,0.609981 -0.634283,2.170131 -0.775334,4.675065 -0.388998,6.908289 0.172097,0.994826 0.577701,2.438252 0.97078,3.454729 0.174948,0.452404 0.293833,0.820343 0.264188,0.817646 -0.02965,-0.0028 -0.390096,-0.15322 -0.801003,-0.334489 z"
       id="path3697"
       inkscape:connector-curvature="0" />
    <path
       style="opacity:1;fill:url(#radialGradient3715);fill-opacity:1;stroke:none;stroke-width:0.26499999;stroke-miterlimit:4;stroke-dasharray:none;stroke-dashoffset:0;stroke-opacity:1"
       d="m 83.743335,80.515993 c -3.501986,-0.287289 -6.831086,-1.02894 -10.118764,-2.254243 -0.6438,-0.239941 -0.657953,-0.25183 -0.89881,-0.755045 -0.690872,-1.443422 -1.973687,-3.164201 -3.334659,-4.473138 -0.432532,-0.415997 -0.796599,-0.786522 -0.809035,-0.823389 -0.03657,-0.108423 1.24446,-1.779003 1.877541,-2.448484 0.761051,-0.804815 1.563641,-1.561688 2.178021,-2.053957 l 0.494046,-0.395853 0.528306,0.580254 c 2.482784,2.726921 5.812021,4.903571 8.598901,5.62195 4.830459,1.245162 9.683455,-0.700187 13.888653,-5.56734 l 0.804451,-0.931082 0.425967,0.308597 c 0.863221,0.625373 2.138569,1.841084 3.095957,2.951184 l 0.98361,1.1405 -0.57962,0.515196 c -1.592752,1.415709 -3.151008,3.568965 -4.002342,5.530581 -0.298163,0.687014 -0.319496,0.701725 -1.919439,1.323936 -2.383086,0.926766 -4.725004,1.463547 -7.398631,1.695805 -1.009399,0.0877 -2.951827,0.105274 -3.814153,0.03452 z"
       id="path3707"
       inkscape:connector-curvature="0" />
    <path
       style="opacity:1;fill:url(#radialGradient3725);fill-opacity:1;stroke:none;stroke-width:0.26499999;stroke-miterlimit:4;stroke-dasharray:none;stroke-dashoffset:0;stroke-opacity:1"
       d="m 68.311261,94.523335 c -2.299151,-3.573706 -3.44249,-8.043181 -3.14259,-12.284853 0.174641,-2.470094 0.597881,-4.290685 1.511521,-6.501929 0.521772,-1.26282 1.515356,-3.146136 1.696781,-3.216216 0.163863,-0.06331 1.093543,0.85303 2.159191,2.128167 1.471253,1.760482 2.293841,3.26229 2.82512,5.15785 1.316695,4.697861 -0.123142,9.869976 -4.031554,14.481964 l -0.6649,0.784591 z"
       id="path3717"
       inkscape:connector-curvature="0" />
    <text
       xml:space="preserve"
       style="font-style:normal;font-weight:normal;font-size:1.98530984px;line-height:1.25;font-family:sans-serif;letter-spacing:0px;word-spacing:0px;fill:#000000;fill-opacity:1;stroke:none;stroke-width:0.26458332"
       x="104.63801"
       y="73.867989"
       id="text3729"><tspan
         sodipodi:role="line"
         id="tspan3727"
         x="104.63801"
         y="73.867989"
         style="stroke-width:0.26458332">$f\circ\phi^{-1}=c-\e$</tspan></text>
    <text
       xml:space="preserve"
       style="font-style:normal;font-weight:normal;font-size:1.81584311px;line-height:1.25;font-family:sans-serif;letter-spacing:0px;word-spacing:0px;fill:#000000;fill-opacity:1;stroke:none;stroke-width:0.26458332"
       x="58.946686"
       y="58.232445"
       id="text3733"
       transform="scale(0.91463962,1.0933268)"><tspan
         sodipodi:role="line"
         id="tspan3731"
         x="58.946686"
         y="58.232445"
         style="stroke-width:0.26458332">$f\circ\phi^{-1}=c+\e$</tspan></text>
    <text
       xml:space="preserve"
       style="font-style:normal;font-weight:normal;font-size:1.98530984px;line-height:1.25;font-family:sans-serif;letter-spacing:0px;word-spacing:0px;fill:#000000;fill-opacity:1;stroke:none;stroke-width:0.26458332"
       x="109.94109"
       y="90.041542"
       id="text3737"><tspan
         sodipodi:role="line"
         id="tspan3735"
         x="109.94109"
         y="90.041542"
         style="stroke-width:0.26458332">$\vect{y_1 \, \cdots\, y_k}$</tspan></text>
    <text
       xml:space="preserve"
       style="font-style:normal;font-weight:normal;font-size:1.81584311px;line-height:1.25;font-family:sans-serif;letter-spacing:0px;word-spacing:0px;fill:#000000;fill-opacity:1;stroke:none;stroke-width:0.26458332"
       x="96.376625"
       y="51.951714"
       id="text3741"
       transform="scale(0.91463963,1.0933268)"><tspan
         sodipodi:role="line"
         id="tspan3739"
         x="96.376625"
         y="51.951714"
         style="stroke-width:0.26458332">$\vect{y_{k+1} \,\cdots \, y_n}$</tspan></text>
    <path
       style="fill:none;stroke:#000000;stroke-width:0.60000002;stroke-linecap:butt;stroke-linejoin:miter;stroke-miterlimit:4;stroke-dasharray:0.59999998, 0.59999998;stroke-dashoffset:0;stroke-opacity:1"
       d="M 73.910662,83.542879 H 95.621667"
       id="path4869"
       inkscape:connector-curvature="0" />
    <text
       xml:space="preserve"
       style="font-style:normal;font-weight:normal;font-size:1.81584311px;line-height:1.25;font-family:sans-serif;letter-spacing:0px;word-spacing:0px;display:inline;fill:#000000;fill-opacity:1;stroke:none;stroke-width:0.26458332"
       x="66.433884"
       y="82.98111"
       id="text4565"
       transform="scale(0.91463964,1.0933268)"><tspan
         sodipodi:role="line"
         id="tspan4563"
         x="66.433884"
         y="82.98111"
         style="stroke-width:0.26458332">$H$</tspan></text>
    <path
       style="fill:none;stroke:#000000;stroke-width:0.26458332px;stroke-linecap:butt;stroke-linejoin:miter;stroke-opacity:1;marker-end:url(#marker5138)"
       d="m 65.280765,89.480814 c 3.800891,-2.419127 8.51252,-2.933095 13.262791,-3.36623"
       id="path4873"
       inkscape:connector-curvature="0"
       sodipodi:nodetypes="cc" />
    <text
       xml:space="preserve"
       style="font-style:normal;font-weight:normal;font-size:3.24316287px;line-height:1.25;font-family:sans-serif;letter-spacing:0px;word-spacing:0px;fill:#000000;fill-opacity:1;stroke:none;stroke-width:0.26458332"
       x="105.13631"
       y="101.90931"
       id="text5196"><tspan
         sodipodi:role="line"
         id="tspan5194"
         x="105.13631"
         y="101.90931"
         style="stroke-width:0.26458332">$D^k$</tspan></text>
    <path
       style="fill:none;stroke:#000000;stroke-width:0.26458332px;stroke-linecap:butt;stroke-linejoin:miter;stroke-opacity:1;marker-end:url(#marker5208)"
       d="M 102.82437,100.03827 C 97.149659,97.767628 93.698215,90.366435 91.533822,84.377176"
       id="path5198"
       inkscape:connector-curvature="0"
       sodipodi:nodetypes="cc" />
  </g>
</svg>
