<?xml version="1.0" encoding="UTF-8" standalone="no"?>
<!-- Created with Inkscape (http://www.inkscape.org/) -->

<svg
   xmlns:dc="http://purl.org/dc/elements/1.1/"
   xmlns:cc="http://creativecommons.org/ns#"
   xmlns:rdf="http://www.w3.org/1999/02/22-rdf-syntax-ns#"
   xmlns:svg="http://www.w3.org/2000/svg"
   xmlns="http://www.w3.org/2000/svg"
   xmlns:xlink="http://www.w3.org/1999/xlink"
   xmlns:sodipodi="http://sodipodi.sourceforge.net/DTD/sodipodi-0.dtd"
   xmlns:inkscape="http://www.inkscape.org/namespaces/inkscape"
   width="210mm"
   height="297mm"
   viewBox="0 0 210 297"
   version="1.1"
   id="svg1349"
   inkscape:version="0.92.5 (2060ec1f9f, 2020-04-08)"
   sodipodi:docname="n2_contingentCone_less.svg">
  <defs
     id="defs1343">
    <linearGradient
       inkscape:collect="always"
       id="linearGradient2193">
      <stop
         style="stop-color:#000000;stop-opacity:0.17553191"
         offset="0"
         id="stop2189" />
      <stop
         style="stop-color:#000000;stop-opacity:0;"
         offset="1"
         id="stop2191" />
    </linearGradient>
    <linearGradient
       inkscape:collect="always"
       id="linearGradient2160">
      <stop
         style="stop-color:#c8dc30;stop-opacity:0.95294118"
         offset="0"
         id="stop2156" />
      <stop
         style="stop-color:#c8dc30;stop-opacity:0"
         offset="1"
         id="stop2158" />
    </linearGradient>
    <linearGradient
       inkscape:collect="always"
       id="linearGradient2140">
      <stop
         style="stop-color:#fc0503;stop-opacity:0.3882353"
         offset="0"
         id="stop2136" />
      <stop
         style="stop-color:#fa0503;stop-opacity:0"
         offset="1"
         id="stop2138" />
    </linearGradient>
    <radialGradient
       inkscape:collect="always"
       xlink:href="#linearGradient2140"
       id="radialGradient2142"
       cx="307.51303"
       cy="406.05923"
       fx="307.51303"
       fy="406.05923"
       r="125.02121"
       gradientTransform="matrix(0.21884627,0.04569538,-0.0465995,0.22302506,27.221567,0.80465855)"
       gradientUnits="userSpaceOnUse" />
    <radialGradient
       inkscape:collect="always"
       xlink:href="#linearGradient2160"
       id="radialGradient2162"
       cx="309.22363"
       cy="385.68088"
       fx="309.22363"
       fy="385.68088"
       r="78.51582"
       gradientTransform="matrix(0.42298095,0.10759683,-0.08937116,0.35109456,-20.397367,-63.836559)"
       gradientUnits="userSpaceOnUse" />
    <radialGradient
       inkscape:collect="always"
       xlink:href="#linearGradient2193"
       id="radialGradient2195"
       cx="309.34036"
       cy="381.15256"
       fx="309.34036"
       fy="381.15256"
       r="74.71338"
       gradientTransform="matrix(0.40448343,0.00405617,-0.00377257,0.37594771,-47.732884,-39.646688)"
       gradientUnits="userSpaceOnUse" />
  </defs>
  <sodipodi:namedview
     id="base"
     pagecolor="#ffffff"
     bordercolor="#666666"
     borderopacity="1.0"
     inkscape:pageopacity="0.0"
     inkscape:pageshadow="2"
     inkscape:zoom="0.70710678"
     inkscape:cx="68.255532"
     inkscape:cy="792.9975"
     inkscape:document-units="mm"
     inkscape:current-layer="layer6"
     showgrid="false"
     inkscape:window-width="1366"
     inkscape:window-height="699"
     inkscape:window-x="0"
     inkscape:window-y="0"
     inkscape:window-maximized="1" />
  <metadata
     id="metadata1346">
    <rdf:RDF>
      <cc:Work
         rdf:about="">
        <dc:format>image/svg+xml</dc:format>
        <dc:type
           rdf:resource="http://purl.org/dc/dcmitype/StillImage" />
        <dc:title></dc:title>
      </cc:Work>
    </rdf:RDF>
  </metadata>
  <g
     inkscape:label="Layer 1"
     inkscape:groupmode="layer"
     id="layer1"
     style="display:inline">
    <text
       xml:space="preserve"
       style="font-style:normal;font-weight:normal;font-size:2.07047534px;line-height:1.25;font-family:sans-serif;letter-spacing:0px;word-spacing:0px;display:inline;fill:#000000;fill-opacity:1;stroke:none;stroke-width:0.26458332"
       x="85.441704"
       y="69.547638"
       id="text1312"
       transform="scale(1.0001696,0.99983045)"><tspan
         sodipodi:role="line"
         id="tspan1310"
         x="85.441704"
         y="69.547638"
         style="stroke-width:0.26458332">$X$</tspan></text>
    <path
       style="display:inline;fill:none;stroke:#000000;stroke-width:0.40000004;stroke-linecap:butt;stroke-linejoin:miter;stroke-miterlimit:4;stroke-dasharray:none;stroke-opacity:1"
       d="M 82.780734,70.834762 C 80.450722,78.71121 79.13116,92.760258 75.597489,105.41796 88.959055,98.73616 99.182851,90.32155 107.93581,85.350072"
       id="path942"
       inkscape:connector-curvature="0"
       sodipodi:nodetypes="ccc" />
    <path
       style="opacity:1;fill:url(#radialGradient2195);fill-opacity:1;stroke:none;stroke-width:0.39999998;stroke-miterlimit:4;stroke-dasharray:none;stroke-dashoffset:0;stroke-opacity:1"
       d="m 75.952245,104.90149 c 0,-0.0532 0.217012,-0.93746 0.482246,-1.965 1.066993,-4.133636 1.996023,-8.731507 3.59304,-17.782344 0.593282,-3.362335 1.278963,-7.095836 1.523735,-8.29667 0.244773,-1.200834 0.466561,-2.306886 0.492865,-2.457893 0.0263,-0.151005 0.102999,-0.295725 0.170439,-0.321593 0.199997,-0.07672 3.458179,0.622938 5.038037,1.081863 4.895927,1.422195 9.333144,3.725106 12.946503,6.719224 1.17284,0.971842 3.34427,3.191899 4.16327,4.256496 l 0.59957,0.779381 -1.57027,1.005484 c -0.86366,0.553017 -3.688835,2.431915 -6.278177,4.175329 -7.931364,5.340221 -11.079636,7.346334 -15.482663,9.865723 -2.016305,1.15372 -5.499662,3.03674 -5.61759,3.03674 -0.03355,0 -0.061,-0.0435 -0.061,-0.0967 z"
       id="path2187"
       inkscape:connector-curvature="0" />
  </g>
  <g
     inkscape:groupmode="layer"
     id="layer5"
     inkscape:label="Layer 2"
     style="display:inline">
    <path
       style="display:inline;fill:none;stroke:#fffc09;stroke-width:0.40000004;stroke-linecap:butt;stroke-linejoin:miter;stroke-miterlimit:4;stroke-dasharray:none;stroke-opacity:1"
       d="M 85.097123,72.230858 75.597489,105.41796 109.37673,87.820684"
       id="path946"
       inkscape:connector-curvature="0"
       sodipodi:nodetypes="ccc" />
    <path
       style="opacity:1;fill:#fa0503;fill-opacity:0;stroke:none;stroke-width:0.39999998;stroke-miterlimit:4;stroke-dasharray:none;stroke-dashoffset:0;stroke-opacity:1"
       d="m 75.929585,104.84538 c 0.06289,-0.25705 8.120608,-28.426502 8.504919,-29.732854 l 0.190399,-0.647206 1.478528,0.384808 c 5.376607,1.399335 10.237801,3.823476 14.113909,7.038212 1.10423,0.91582 3.01298,2.844741 3.91171,3.953064 0.79199,0.976674 2.25304,3.159665 2.20846,3.299709 -0.0268,0.0842 -11.84596,6.280286 -29.176522,15.295517 -1.2708,0.66107 -1.295112,0.66914 -1.231403,0.40875 z"
       id="path2149"
       inkscape:connector-curvature="0" />
    <path
       style="opacity:1;fill:#fa0503;fill-opacity:0;stroke:none;stroke-width:0.39999998;stroke-miterlimit:4;stroke-dasharray:none;stroke-dashoffset:0;stroke-opacity:1"
       d="m 75.929585,104.84538 c 0.06289,-0.25705 8.120608,-28.426502 8.504919,-29.732854 l 0.190399,-0.647206 1.478528,0.384808 c 5.376607,1.399335 10.237801,3.823476 14.113909,7.038212 1.10423,0.91582 3.01298,2.844741 3.91171,3.953064 0.79199,0.976674 2.25304,3.159665 2.20846,3.299709 -0.0268,0.0842 -11.84596,6.280286 -29.176522,15.295517 -1.2708,0.66107 -1.295112,0.66914 -1.231403,0.40875 z"
       id="path2151"
       inkscape:connector-curvature="0" />
    <path
       style="opacity:1;fill:url(#radialGradient2162);fill-opacity:1;stroke:none;stroke-width:0.39999998;stroke-miterlimit:4;stroke-dasharray:none;stroke-dashoffset:0;stroke-opacity:1"
       d="m 75.914312,105.00264 c 0,-0.0549 1.95551,-6.942131 4.345575,-15.304896 l 4.345575,-15.205029 0.424825,0.09062 c 3.816371,0.814048 9.027496,3.02365 12.367986,5.24423 3.580377,2.380045 6.784937,5.635046 8.700127,8.837069 l 0.30203,0.504976 -0.86322,0.473781 c -0.47477,0.260582 -6.948053,3.636894 -14.385072,7.502915 -7.437019,3.866014 -13.907947,7.237724 -14.37984,7.492664 -0.471892,0.25495 -0.857986,0.4186 -0.857986,0.36367 z"
       id="path2154"
       inkscape:connector-curvature="0" />
    <path
       style="display:inline;opacity:1;fill:none;fill-opacity:0.20212767;stroke:#fffc09;stroke-width:0.40000004;stroke-miterlimit:4;stroke-dasharray:none;stroke-dashoffset:0;stroke-opacity:1"
       id="path1326"
       sodipodi:type="arc"
       sodipodi:cx="75.598351"
       sodipodi:cy="105.29697"
       sodipodi:rx="9.3170395"
       sodipodi:ry="9.4299126"
       sodipodi:start="5.0079002"
       sodipodi:end="5.8114367"
       d="m 78.311742,96.275809 a 9.3170395,9.4299126 0 0 1 5.585994,4.735781 l -8.299385,4.28538 z" />
  </g>
  <g
     inkscape:groupmode="layer"
     id="layer6"
     inkscape:label="Layer 3"
     style="display:inline">
    <path
       style="display:inline;fill:none;stroke:#ff0000;stroke-width:0.40000004;stroke-linecap:butt;stroke-linejoin:miter;stroke-miterlimit:4;stroke-dasharray:none;stroke-opacity:1"
       d="M 106.60822,112.3962 75.597489,105.41796 59.770451,74.796239"
       id="path944"
       inkscape:connector-curvature="0"
       sodipodi:nodetypes="ccc" />
    <path
       style="opacity:1;fill:url(#radialGradient2142);fill-opacity:1;stroke:none;stroke-width:0.39999998;stroke-miterlimit:4;stroke-dasharray:none;stroke-dashoffset:0;stroke-opacity:1"
       d="m 90.38373,108.57467 -14.670828,-3.31064 -7.527749,-14.558074 -7.52775,-14.558075 0.404022,-0.175145 c 0.639882,-0.27739 2.808781,-0.924837 4.291507,-1.281075 5.05776,-1.215174 10.401452,-1.494309 15.673024,-0.818702 12.614627,1.6167 23.108584,8.783829 26.791484,18.297962 0.91562,2.36535 1.38319,4.903501 1.38319,7.508451 0,3.145698 -0.63414,5.984348 -2.00489,8.974598 -0.55137,1.2028 -1.80878,3.25376 -1.98744,3.24171 -0.0846,-0.006 -6.755613,-1.50016 -14.82457,-3.32101 z"
       id="path2134"
       inkscape:connector-curvature="0" />
    <path
       style="display:inline;opacity:1;fill:none;fill-opacity:0.20212767;stroke:#ff0000;stroke-width:0.40000004;stroke-miterlimit:4;stroke-dasharray:none;stroke-dashoffset:0;stroke-opacity:1"
       id="path1334"
       sodipodi:type="arc"
       sodipodi:cx="75.697304"
       sodipodi:cy="105.36018"
       sodipodi:rx="14.968919"
       sodipodi:ry="15.25755"
       sodipodi:start="4.2231678"
       sodipodi:end="0.21874876"
       d="M 68.662832,91.892357 A 14.968919,15.25755 0 0 1 84.75822,93.215391 14.968919,15.25755 0 0 1 90.309509,108.6712 L 75.697304,105.36018 Z" />
    <rect
       style="display:inline;opacity:1;fill:none;fill-opacity:0.11170211;stroke:#ff0000;stroke-width:0.40000004;stroke-miterlimit:4;stroke-dasharray:none;stroke-dashoffset:0;stroke-opacity:0.95686275"
       id="rect948"
       width="3.8650875"
       height="3.8639386"
       x="99.385468"
       y="79.398132"
       transform="matrix(0.96873461,0.2480993,-0.24825725,0.96869414,0,0)" />
    <rect
       style="display:inline;opacity:1;fill:none;fill-opacity:0.11170211;stroke:#ff0000;stroke-width:0.40000004;stroke-miterlimit:4;stroke-dasharray:none;stroke-dashoffset:0;stroke-opacity:0.85490196"
       id="rect948-3"
       width="3.8641415"
       height="3.8648846"
       x="124.64927"
       y="-21.730488"
       transform="matrix(0.46534596,0.88512888,-0.88525882,0.46509872,0,0)" />
    <ellipse
       style="display:inline;opacity:1;fill:none;fill-opacity:0.11170211;stroke:#000000;stroke-width:0.40000004;stroke-miterlimit:4;stroke-dasharray:none;stroke-dashoffset:0;stroke-opacity:1"
       id="path965"
       cx="75.70311"
       cy="105.26048"
       rx="0.43920606"
       ry="0.43905714" />
    <text
       xml:space="preserve"
       style="font-style:normal;font-weight:normal;font-size:2.07047534px;line-height:1.25;font-family:sans-serif;letter-spacing:0px;word-spacing:0px;display:inline;fill:#000000;fill-opacity:1;stroke:none;stroke-width:0.26458332"
       x="71.70253"
       y="110.14987"
       id="text1316"
       transform="scale(1.0001696,0.99983045)"><tspan
         sodipodi:role="line"
         id="tspan1314"
         x="71.70253"
         y="110.14987"
         style="stroke-width:0.26458332">$x$</tspan></text>
    <text
       xml:space="preserve"
       style="font-style:normal;font-weight:normal;font-size:2.07047534px;line-height:1.25;font-family:sans-serif;letter-spacing:0px;word-spacing:0px;display:inline;fill:#000000;fill-opacity:1;stroke:none;stroke-width:0.26458332"
       x="105.60217"
       y="98.803619"
       id="text1320"
       transform="scale(1.0001696,0.99983045)"><tspan
         sodipodi:role="line"
         id="tspan1318"
         x="105.60217"
         y="98.803619"
         style="stroke-width:0.26458332">$\brk*{C_xX}^*$</tspan></text>
    <text
       xml:space="preserve"
       style="font-style:normal;font-weight:normal;font-size:2.07047534px;line-height:1.25;font-family:sans-serif;letter-spacing:0px;word-spacing:0px;display:inline;fill:#000000;fill-opacity:1;stroke:none;stroke-width:0.26458332"
       x="97.409325"
       y="82.069443"
       id="text1324"
       transform="scale(1.0001696,0.99983045)"><tspan
         sodipodi:role="line"
         id="tspan1322"
         x="97.409325"
         y="82.069443"
         style="stroke-width:0.26458332">$C_xX$</tspan></text>
    <text
       xml:space="preserve"
       style="font-style:normal;font-weight:normal;font-size:2.07047534px;line-height:1.25;font-family:sans-serif;letter-spacing:0px;word-spacing:0px;display:inline;fill:#000000;fill-opacity:1;stroke:none;stroke-width:0.26458332"
       x="84.718704"
       y="87.871223"
       id="text1330"
       transform="scale(1.0001696,0.99983045)"><tspan
         sodipodi:role="line"
         id="tspan1328"
         x="84.718704"
         y="87.871223"
         style="stroke-width:0.26458332">$\alpha$</tspan></text>
    <text
       xml:space="preserve"
       style="font-style:normal;font-weight:normal;font-size:2.07047534px;line-height:1.25;font-family:sans-serif;letter-spacing:0px;word-spacing:0px;display:inline;fill:#000000;fill-opacity:1;stroke:none;stroke-width:0.26458332"
       x="95.101959"
       y="104.03974"
       id="text1341"
       transform="scale(1.0001696,0.99983045)"><tspan
         sodipodi:role="line"
         id="tspan1339"
         x="95.101959"
         y="104.03974"
         style="stroke-width:0.26458332">$\pi-\alpha$</tspan></text>
  </g>
  <g
     inkscape:groupmode="layer"
     id="layer7"
     inkscape:label="Layer 4"
     style="display:none">
    <ellipse
       style="display:inline;opacity:1;fill:none;fill-opacity:0.20212767;stroke:#070000;stroke-width:0.39999998;stroke-miterlimit:4;stroke-dasharray:none;stroke-dashoffset:0;stroke-opacity:1"
       id="path2131"
       cx="81.104248"
       cy="95.028419"
       rx="46.349331"
       ry="35.926636" />
  </g>
</svg>
